# AST/ASF file generated using VICON BodyLanguage
# -----------------------------------------------
:version 1.10
:name VICON
:units
  mass 1.0
  length 0.45
  angle deg
:documentation
   .ast/.asf automatically generated from VICON data using
   VICON BodyBuilder and BodyLanguage model FoxedUp or BRILLIANT.MOD
:root
   order TX TY TZ RX RY RZ
   axis XYZ
   position 0 0 0  
   orientation 0 0 0 
:bonedata
  begin
     id 1 
     name lhipjoint
     direction 0.707368 -0.647095 0.284426 
     length 2.60678 
     axis 0 0 0  XYZ
  end
  begin
     id 2 
     name lfemur
     direction 0.34202 -0.939693 0  
     length 6.63812  
     axis 0 0 20  XYZ
    dof rx ry rz
    limits (-160.0 20.0)
           (-70.0 70.0)
           (-60.0 70.0)
  end
  begin
     id 3 
     name ltibia
     direction 0.34202 -0.939693 0   
     length 7.51178   
     axis 0 0 20   XYZ
    dof rx
    limits (-10.0 170.0)
  end
  begin
     id 4 
     name lfoot
     direction 0.121251 -0.333133 0.935051   
     length 1.83716   
     axis -90 7.62852e-016 20   XYZ
    dof rx rz
    limits (-45.0 90.0)
           (-70.0 20.0)
  end
  begin
     id 5 
     name ltoes
     direction 1.53611e-011 -4.21962e-011 1   
     length 0.916133   
     axis -90 7.62852e-016 20   XYZ
    dof rx
    limits (-90.0 20.0)
  end
  begin
     id 6 
     name rhipjoint
     direction -0.692419 -0.660507 0.290321   
     length 2.55385  
     axis 0 0 0  XYZ 
  end
  begin
     id 7 
     name rfemur
     direction -0.34202 -0.939693 0   
     length 7.29079   
     axis 0 0 -20   XYZ
    dof rx ry rz
    limits (-160.0 20.0)
           (-70.0 70.0)
           (-70.0 60.0)
  end
  begin
     id 8 
     name rtibia
     direction -0.34202 -0.939693 0   
     length 7.47143   
     axis 0 0 -20   XYZ
    dof rx
    limits (-10.0 170.0)
 end
 begin
     id 9 
     name rfoot
     direction -0.119907 -0.329441 0.936532   
     length 1.79439  
     axis -90 -7.62852e-016 -20   XYZ
    dof rx rz
    limits (-45.0 90.0)
           (-20.0 70.0)
  end
  begin
     id 10 
     name rtoes
     direction -1.53571e-011 -4.21961e-011 1   
     length 0.896039   
     axis -90 -7.62852e-016 -20   XYZ
    dof rx
    limits (-90.0 20.0)
  end
  begin
     id 11 
     name lowerback
     direction 0.0367721 0.992912 -0.113016   
     length 1.73542   
     axis 0 0 0   XYZ
    dof rx ry rz
    limits (-20.0 45.0)
           (-30.0 30.0)
           (-30.0 30.0)
  end
  begin
     id 12 
     name upperback
     direction -0.000314626 0.990678 0.136227   
     length 1.7514   
     axis 0 0 0   XYZ
    dof rx ry rz
    limits (-20.0 45.0)
           (-30.0 30.0)
           (-30.0 30.0)
  end
  begin
     id 13 
     name thorax
     direction -0.0226159 0.981151 0.191917   
     length 1.71471   
     axis 0 0 0   XYZ
    dof rx ry rz
    limits (-20.0 45.0)
           (-30.0 30.0)
           (-30.0 30.0)
  end
  begin
     id 14 
     name lowerneck
     direction 0.0219333 0.998071 0.0580739   
     length 1.65882   
     axis 0 0 0   XYZ
    dof rx ry rz
    limits (-20.0 45.0)
           (-30.0 30.0)
           (-30.0 30.0)
  end
  begin
     id 15 
     name upperneck
     direction 0.0384529 0.980058 -0.194957   
     length 1.6612   
     axis 0 0 0   XYZ
    dof rx ry rz
    limits (-20.0 45.0)
           (-30.0 30.0)
           (-30.0 30.0)
  end
  begin
     id 16
     name head
     direction 0.00592123 0.997421 -0.0715234  
     length 1.68077  
     axis 0 0 0   XYZ
    dof rx ry rz
    limits (-20.0 45.0)
           (-30.0 30.0)
           (-30.0 30.0)
  end
  begin
     id 17 
     name lclavicle
     direction 0.904803 0.417826 0.0821728  
     length 3.42227  
     axis 0 0 0   XYZ
    dof ry rz
    limits (-20.0 10.0)
           (0.0 20.0)
  end
  begin
     id 18 
     name lhumerus
     direction 1 -4.48965e-011 -2.68786e-027   
     length 5.11878   
     axis -180 -30 -90   XYZ
    dof rx ry rz
    limits (-60.0 90.0)
           (-90.0 90.0)
           (-90.0 90.0)
  end
  begin
     id 19
     name lradius
     direction 1 -4.48965e-011 2.61168e-028   
     length 3.59971   
     axis -180 -30 -90   XYZ
    dof rx
    limits (-10.0 170.0)
  end
  begin
     id 20
     name lwrist
     direction 1 -4.48965e-011 1.58672e-027   
     length 1.79985   
     axis -1.65735e-015 90 90   XYZ
    dof ry
    limits (-180.0 0.0)
 end
  begin
     id 21 
     name lhand
     direction 1 -4.48942e-011 3.17344e-027   
     length 0.62877   
     axis -2.02492e-015 90 90   XYZ
    dof rx rz
    limits (-90.0 90.0)
           (-45.0 45.0)
  end
  begin
     id 22 
     name lfingers
     direction 1 -4.49011e-011 6.34687e-027   
     length 0.506931   
     axis -4.04985e-015 90 90   XYZ
    dof rx
    limits (0.0 90.0)
  end
  begin
     id 23
     name lthumb
     direction 0.707107 -6.34982e-011 0.707107   
     length 0.727854   
     axis -90 45 2.85299e-015   XYZ
    dof rx rz
    limits (-45.0 45.0)
           (-45.0 45.0)
  end
  begin
     id 24 
     name rclavicle
     direction -0.945647 0.32488 0.0143075   
     length 3.52737  
     axis 0 0 0   XYZ 
    dof ry rz
    limits (-10.0 20.0)
           (-20.0 0.0)
  end
  begin
     id 25 
     name rhumerus
     direction -1 -4.48962e-011 1.92182e-027  
     length 5.4902   
     axis -180 30 90   XYZ
    dof rx ry rz
    limits (-90.0 60.0)
           (-90.0 90.0)
           (-90.0 90.0)
  end
  begin
     id 26 
     name rradius
     direction -1 -4.48967e-011 -5.97193e-028   
     length 3.20659   
     axis -180 30 90   XYZ
    dof rx
    limits (-10.0 170.0)
  end
  begin
     id 27 
     name rwrist
     direction -1 -4.48964e-011 1.58672e-027   
     length 1.6033   
     axis -1.65735e-015 -90 -90   XYZ
    dof ry
    limits (-180.0 0.0)
  end
  begin
     id 28
     name rhand
     direction -1 -4.49006e-011 3.17344e-027   
     length 0.691885   
     axis -2.02492e-015 -90 -90   XYZ
    dof rx rz
    limits (-90.0 90.0)
           (-45.0 45.0)
  end
  begin
     id 29
     name rfingers
     direction -1 -4.48908e-011 6.34687e-027   
     length 0.557815   
     axis -4.04985e-015 -90 -90   XYZ
    dof rx
    limits (0.0 90.0)
  end
  begin
     id 30
     name rthumb
     direction -0.707107 -6.34999e-011 0.707107   
     length 0.800915   
     axis -90 -45 -2.85299e-015   XYZ
    dof rx rz
    limits (-45.0 45.0)
           (-45.0 45.0)
  end
:hierarchy
  begin
    root lhipjoint rhipjoint lowerback
    lhipjoint lfemur
    lfemur ltibia
    ltibia lfoot
    lfoot ltoes
    rhipjoint rfemur
    rfemur rtibia
    rtibia rfoot
    rfoot rtoes
    lowerback upperback
    upperback thorax
    thorax lowerneck lclavicle rclavicle
    lowerneck upperneck
    upperneck head
    lclavicle lhumerus
    lhumerus lradius
    lradius lwrist
    lwrist lhand lthumb
    lhand lfingers
    rclavicle rhumerus
    rhumerus rradius
    rradius rwrist
    rwrist rhand rthumb
    rhand rfingers
  end

#!OML:ASF I:\Actors\actors\Patient Classification 1\Patient 1\Session 1\Subject1.ASF
:FULLY-SPECIFIED
:DEGREES
195
root 0.590483 17.4515 8.54841 10.0062 -2.92322 -7.31271
lowerback -1.97107 3.03685 3.10185
upperback -8.71091 4.19826 0.441405
thorax -7.83238 1.88417 -1.46082
lowerneck -6.06898 -6.03145 -5.96917
upperneck 15.561 -9.34673 11.0093
head 6.51567 -4.10406 3.7673
rclavicle -5.46658e-015 7.95139e-015
rhumerus -45.3173 -3.14797 -89.3965
rradius 30.9805
rwrist 31.5321
rhand 17.8523 -33.3058
rfingers 7.12502
rthumb 42.5294 -57.7159
lclavicle -5.46658e-015 7.95139e-015
lhumerus -54.0738 -20.7697 101.614
lradius 78.777
lwrist -2.65419
lhand -12.7601 -12.5374
lfingers 7.12502
lthumb 13.3244 17.0166
rfemur -4.46286 27.5663 18.7554
rtibia 2.05115
rfoot -13.3376 -27.7509
rtoes -0.433579
lfemur 8.98006 -51.0138 -18.5637
ltibia -4.70481
lfoot -40.8701 58.5113
ltoes 25.3575
196
root 0.585397 17.4469 8.53482 10.2043 -2.55396 -7.10043
lowerback -2.47908 2.80141 2.96707
upperback -8.53295 3.86269 0.628111
thorax -7.37868 1.7458 -1.14361
lowerneck -5.86733 -5.84244 -6.19986
upperneck 15.7409 -9.02064 10.6649
head 6.50051 -3.98678 3.73049
rclavicle -6.16232e-015 8.74653e-015
rhumerus -44.8944 -2.73553 -89.2527
rradius 31.1956
rwrist 31.3487
rhand 17.9954 -33.3465
rfingers 7.12502
rthumb 42.6633 -57.7103
lclavicle -6.16232e-015 8.74653e-015
lhumerus -53.0417 -21.6351 101.499
lradius 80.6725
lwrist -2.34119
lhand -13.1747 -12.8162
lfingers 7.12502
lthumb 12.9248 16.7635
rfemur -4.74778 27.5823 18.4112
rtibia 2.12518
rfoot -13.5649 -28.1083
rtoes -0.0341839
lfemur 7.58254 -49.6962 -17.5698
ltibia -4.58406
lfoot -37.6906 57.6199
ltoes 23.6474
197
root 0.586517 17.4479 8.54595 10.0345 -2.78585 -7.04648
lowerback -2.56375 2.85035 3.22223
upperback -8.47735 3.9298 0.680416
thorax -7.25543 1.76655 -1.22571
lowerneck -5.25792 -5.65366 -6.29901
upperneck 16.0132 -8.73462 10.3121
head 6.4407 -3.89319 3.67669
rclavicle -5.59579e-014 -5.96354e-015
rhumerus -44.9852 -2.72057 -89.0842
rradius 31.452
rwrist 31.1052
rhand 17.9964 -33.43
rfingers 7.12502
rthumb 42.6642 -57.7935
lclavicle -5.59579e-014 -5.96354e-015
lhumerus -52.4161 -22.8082 101.459
lradius 82.321
lwrist -1.71666
lhand -13.381 -13.0698
lfingers 7.12502
lthumb 12.7259 16.5225
rfemur -4.55439 27.5453 18.4455
rtibia 2.16802
rfoot -13.3741 -27.8959
rtoes -0.677466
lfemur 8.06113 -49.5225 -18.0272
ltibia -4.63247
lfoot -37.7279 57.6784
ltoes 23.5552
198
root 0.58395 17.4478 8.55152 9.95117 -2.82596 -6.98885
lowerback -2.17638 2.91495 3.59271
upperback -8.80187 4.05044 0.615129
thorax -7.80315 1.78309 -1.53497
lowerneck -4.93437 -5.69993 -6.37112
upperneck 17.0353 -8.80918 9.80438
head 6.69536 -3.95878 3.52996
rclavicle 2.25621e-014 -7.15625e-015
rhumerus -45.6459 -3.13878 -88.7924
rradius 31.8031
rwrist 30.9219
rhand 18.2032 -33.5315
rfingers 7.12502
rthumb 42.8577 -57.8276
lclavicle 2.25621e-014 -7.15625e-015
lhumerus -52.273 -24.2624 101.614
lradius 83.7085
lwrist -1.02775
lhand -13.53 -13.3432
lfingers 7.12502
lthumb 12.5822 16.2579
rfemur -4.45413 27.5637 18.4482
rtibia 2.21263
rfoot -13.3099 -27.8824
rtoes -0.962521
lfemur 8.13017 -49.1628 -18.1149
ltibia -4.6618
lfoot -37.1785 57.5058
ltoes 23.2274
199
root 0.579399 17.4463 8.55322 9.94389 -2.73314 -6.92606
lowerback -2.16196 2.80703 3.71293
upperback -8.90454 3.92491 0.806092
thorax -7.93794 1.71607 -1.40056
lowerneck -4.49707 -5.51812 -6.27814
upperneck 17.51 -8.48086 9.00406
head 6.7026 -3.8573 3.29769
rclavicle 1.43125e-014 -5.56597e-015
rhumerus -45.8551 -2.9698 -88.4476
rradius 32.0748
rwrist 30.627
rhand 18.5689 -33.6663
rfingers 7.12502
rthumb 43.1996 -57.8413
lclavicle 1.43125e-014 -5.56597e-015
lhumerus -51.5455 -25.4168 101.638
lradius 84.8045
lwrist -0.484503
lhand -13.8226 -13.4721
lfingers 7.12502
lthumb 12.3002 16.1462
rfemur -4.45619 27.5531 18.4004
rtibia 2.27723
rfoot -13.409 -27.9329
rtoes -0.852728
lfemur 7.91577 -48.8066 -17.9735
ltibia -4.63821
lfoot -36.537 57.2103
ltoes 22.9294
200
root 0.573411 17.4455 8.55396 9.92242 -2.65252 -6.87701
lowerback -2.301 2.66379 3.78188
upperback -8.8655 3.74035 1.05233
thorax -7.83661 1.63259 -1.16498
lowerneck -4.31118 -5.31523 -6.13657
upperneck 18.0434 -8.11075 8.16577
head 6.77034 -3.72802 3.04078
rclavicle 2.29099e-014 1.63003e-014
rhumerus -45.8141 -2.72658 -88.0854
rradius 32.2634
rwrist 30.357
rhand 18.8319 -33.6787
rfingers 7.12502
rthumb 43.4455 -57.7653
lclavicle 2.29099e-014 1.63003e-014
lhumerus -50.4866 -26.5678 101.482
lradius 85.6214
lwrist -0.0969974
lhand -14.0014 -13.4175
lfingers 7.12502
lthumb 12.1277 16.211
rfemur -4.44749 27.4697 18.3721
rtibia 2.3254
rfoot -13.4734 -27.924
rtoes -0.847306
lfemur 7.83503 -48.7193 -17.9361
ltibia -4.60071
lfoot -36.349 57.0713
ltoes 22.8651
201
root 0.56636 17.4453 8.55533 9.87514 -2.60525 -6.7856
lowerback -2.41496 2.5595 3.84856
upperback -8.80552 3.602 1.20254
thorax -7.71746 1.56854 -1.03206
lowerneck -4.41802 -5.14284 -6.381
upperneck 18.7719 -7.86177 7.99607
head 7.00701 -3.62397 3.04649
rclavicle 7.05686e-015 5.1684e-015
rhumerus -45.7549 -2.7394 -87.727
rradius 32.4469
rwrist 30.1318
rhand 19.1334 -33.7356
rfingers 7.12502
rthumb 43.727 -57.7196
lclavicle 7.05686e-015 5.1684e-015
lhumerus -49.3291 -27.9072 101.187
lradius 86.1695
lwrist 0.0690079
lhand -13.8398 -13.308
lfingers 7.12502
lthumb 12.2836 16.3112
rfemur -4.37116 27.395 18.3184
rtibia 2.29962
rfoot -13.5153 -27.9063
rtoes -0.881743
lfemur 7.84363 -48.6461 -18.0159
ltibia -4.58235
lfoot -36.1378 56.9924
ltoes 22.7436
202
root 0.558887 17.4449 8.55713 9.82808 -2.53985 -6.68148
lowerback -2.53719 2.4435 3.89992
upperback -8.72744 3.44521 1.34083
thorax -7.57413 1.49647 -0.902457
lowerneck -4.5983 -4.9562 -6.96183
upperneck 19.4549 -7.64113 8.32751
head 7.27739 -3.51896 3.27008
rclavicle -4.62174e-015 -2.10712e-014
rhumerus -45.6244 -2.76478 -87.3634
rradius 32.548
rwrist 29.8944
rhand 19.4287 -33.7942
rfingers 7.12502
rthumb 44.0025 -57.6762
lclavicle -4.62174e-015 -2.10712e-014
lhumerus -48.089 -29.2576 100.776
lradius 86.5037
lwrist 0.0110175
lhand -13.5692 -13.3348
lfingers 7.12502
lthumb 12.5445 16.2686
rfemur -4.28574 27.3514 18.262
rtibia 2.28818
rfoot -13.5876 -27.9072
rtoes -0.841119
lfemur 7.81952 -48.5102 -18.089
ltibia -4.54404
lfoot -35.9132 56.8336
ltoes 22.6444
203
root 0.550578 17.4452 8.558 9.79128 -2.44126 -6.64929
lowerback -2.68165 2.28602 3.98912
upperback -8.62171 3.23378 1.53574
thorax -7.39143 1.39784 -0.732189
lowerneck -4.62526 -4.78642 -6.85061
upperneck 19.8405 -7.35141 7.86215
head 7.36281 -3.40421 3.12556
rclavicle -1.78161e-014 -4.33351e-014
rhumerus -45.4166 -2.7776 -86.9439
rradius 32.5898
rwrist 29.7418
rhand 19.6769 -33.7391
rfingers 7.12502
rthumb 44.2339 -57.5342
lclavicle -1.78161e-014 -4.33351e-014
lhumerus -46.7232 -30.4766 100.269
lradius 86.5766
lwrist 0.0609364
lhand -13.3047 -13.3453
lfingers 7.12502
lthumb 12.7994 16.2423
rfemur -4.22498 27.3385 18.2937
rtibia 2.32406
rfoot -13.6624 -27.9384
rtoes -0.801381
lfemur 7.77738 -48.4404 -18.0697
ltibia -4.47504
lfoot -35.865 56.6515
ltoes 22.5423
204
root 0.542165 17.4449 8.55747 9.772 -2.35026 -6.64273
lowerback -2.96666 2.04735 4.00557
upperback -8.40583 2.90413 1.84393
thorax -7.02073 1.25402 -0.394299
lowerneck -4.65033 -4.58451 -6.38142
upperneck 20.0139 -6.9549 6.95477
head 7.34493 -3.25136 2.78365
rclavicle -9.93923e-017 8.34896e-015
rhumerus -44.9858 -2.53044 -86.5488
rradius 32.6027
rwrist 29.555
rhand 19.9433 -33.7361
rfingers 7.12502
rthumb 44.4822 -57.4368
lclavicle -9.93923e-017 8.34896e-015
lhumerus -45.0796 -31.428 99.6009
lradius 86.3489
lwrist 0.375948
lhand -12.9991 -13.4113
lfingers 7.12502
lthumb 13.0941 16.1576
rfemur -4.19314 27.3042 18.332
rtibia 2.33736
rfoot -13.7201 -27.9456
rtoes -0.601989
lfemur 7.7522 -48.4622 -18.0289
ltibia -4.43731
lfoot -35.8437 56.585
ltoes 22.3981
205
root 0.532641 17.444 8.55614 9.74275 -2.27951 -6.64266
lowerback -3.56328 1.72722 3.86073
upperback -7.9252 2.43742 2.27955
thorax -6.19873 1.06465 0.176208
lowerneck -4.85261 -4.29363 -6.10529
upperneck 19.8663 -6.40827 6.17002
head 7.25996 -3.02995 2.52273
rclavicle -4.24281e-015 -1.48095e-014
rhumerus -44.0628 -2.0125 -86.1959
rradius 32.5078
rwrist 29.2905
rhand 20.0849 -33.6592
rfingers 7.12502
rthumb 44.6141 -57.3092
lclavicle -4.24281e-015 -1.48095e-014
lhumerus -42.9361 -32.1003 98.6495
lradius 85.8413
lwrist 0.806714
lhand -12.7251 -13.6738
lfingers 7.12502
lthumb 13.3582 15.878
rfemur -4.15923 27.2568 18.3805
rtibia 2.33559
rfoot -13.7564 -27.9383
rtoes -0.428525
lfemur 7.79168 -48.5238 -18.0097
ltibia -4.45602
lfoot -35.7766 56.6127
ltoes 22.3476
206
root 0.522123 17.4438 8.55417 9.70857 -2.2404 -6.65032
lowerback -3.02289 1.63422 4.12655
upperback -8.22531 2.36495 2.3256
thorax -6.82919 1.00063 0.0601627
lowerneck -4.64863 -4.16581 -5.80734
upperneck 20.3424 -6.21425 5.72139
head 7.34278 -2.9532 2.34832
rclavicle -1.96486e-014 1.49089e-014
rhumerus -44.5245 -2.40687 -85.7786
rradius 32.5699
rwrist 29.1867
rhand 20.0879 -33.3759
rfingers 7.12502
rthumb 44.6169 -57.0248
lclavicle -1.96486e-014 1.49089e-014
lhumerus -42.3002 -33.3648 98.4035
lradius 85.2257
lwrist 1.28575
lhand -12.551 -13.8054
lfingers 7.12502
lthumb 13.526 15.7353
rfemur -4.13444 27.1938 18.4449
rtibia 2.34737
rfoot -13.7308 -27.9046
rtoes -0.552681
lfemur 7.85124 -48.5616 -17.9877
ltibia -4.49042
lfoot -35.857 56.5858
ltoes 22.4714
207
root 0.512372 17.4441 8.55113 9.70204 -2.24966 -6.6285
lowerback -3.02433 1.4906 4.1985
upperback -8.10098 2.17597 2.50268
thorax -6.70443 0.911402 0.210923
lowerneck -4.86193 -4.12562 -5.62505
upperneck 20.438 -6.08778 5.28066
head 7.38595 -2.91142 2.17991
rclavicle 3.72721e-017 -2.88238e-014
rhumerus -44.2132 -2.51133 -85.3684
rradius 32.5389
rwrist 29.0467
rhand 20.1406 -33.0638
rfingers 7.12502
rthumb 44.666 -56.6937
lclavicle 3.72721e-017 -2.88238e-014
lhumerus -40.8001 -34.4712 97.7058
lradius 84.4935
lwrist 1.66021
lhand -12.329 -13.6108
lfingers 7.12502
lthumb 13.7399 15.9156
rfemur -4.16731 27.0523 18.4436
rtibia 2.37791
rfoot -13.6506 -27.7491
rtoes -0.674309
lfemur 7.88809 -48.6041 -17.9945
ltibia -4.5221
lfoot -36.0562 56.5788
ltoes 22.6054
208
root 0.502202 17.4444 8.54807 9.73563 -2.30207 -6.64581
lowerback -3.40749 1.30185 4.18918
upperback -7.7284 1.89217 2.78673
thorax -6.10063 0.79298 0.528588
lowerneck -5.1523 -3.95081 -5.20239
upperneck 20.2157 -5.73203 4.57295
head 7.31179 -2.76476 1.90249
rclavicle -1.5704e-014 -4.17448e-015
rhumerus -43.4455 -2.46116 -84.9843
rradius 32.4519
rwrist 28.8817
rhand 20.2795 -32.9667
rfingers 7.12502
rthumb 44.7954 -56.5465
lclavicle -1.5704e-014 -4.17448e-015
lhumerus -38.8628 -35.3416 96.764
lradius 83.5917
lwrist 1.73931
lhand -11.9306 -13.2644
lfingers 7.12502
lthumb 14.1239 16.2355
rfemur -4.26724 26.9473 18.4594
rtibia 2.44263
rfoot -13.6496 -27.5492
rtoes -0.463984
lfemur 7.90459 -48.6809 -17.94
ltibia -4.5633
lfoot -36.2624 56.6644
ltoes 22.7083
209
root 0.492481 17.4452 8.54538 9.77481 -2.38043 -6.69169
lowerback -3.63117 1.12922 4.26291
upperback -7.53491 1.64701 3.04809
thorax -5.77766 0.681204 0.768188
lowerneck -5.17406 -3.77871 -4.93002
upperneck 20.0867 -5.40482 3.98202
head 7.23305 -2.63744 1.69196
rclavicle -2.0773e-014 2.46493e-014
rhumerus -43.0676 -2.53862 -84.5685
rradius 32.447
rwrist 28.7104
rhand 20.3294 -33.0559
rfingers 7.12502
rthumb 44.8418 -56.6175
lclavicle -2.0773e-014 2.46493e-014
lhumerus -37.2602 -36.2109 96.0918
lradius 82.3704
lwrist 1.68785
lhand -11.5668 -13.1777
lfingers 7.12502
lthumb 14.4744 16.2975
rfemur -4.3948 26.8176 18.4957
rtibia 2.52757
rfoot -13.6609 -27.3193
rtoes -0.361699
lfemur 7.92819 -48.7261 -17.8526
ltibia -4.6276
lfoot -36.3868 56.774
ltoes 22.72
